<?xml version="1.0"?>
<svg xmlns="http://www.w3.org/2000/svg" xmlns:xlink="http://www.w3.org/1999/xlink" xmlns:svgjs="http://svgjs.com/svgjs" version="1.1" width="512" height="512" x="0" y="0" viewBox="0 0 510 510" style="enable-background:new 0 0 512 512" xml:space="preserve" class=""><g><link type="text/css" rel="stylesheet" id="dark-mode-general-link"/><link type="text/css" rel="stylesheet" id="dark-mode-custom-link"/><style type="text/css" id="dark-mode-custom-style"/><g xmlns="http://www.w3.org/2000/svg" id="XMLID_2_"><circle id="XMLID_31_" cx="135" cy="480" r="30" fill="#b5985a" data-original="#000000" style="" class=""/><path id="XMLID_29_" d="m437 375c15.464 0 28-12.536 28-28v-17h-330v17c0 15.464 12.536 28 28 28h-73v-375h-90v30h60v420h23.072c10.391-17.916 29.768-30 51.928-30s41.537 12.084 51.928 30h196.145c10.391-17.916 29.768-30 51.928-30s41.537 12.084 51.928 30h23.071v-75z" fill="#b5985a" data-original="#000000" style="" class=""/><circle id="XMLID_7_" cx="435" cy="480" r="30" fill="#b5985a" data-original="#000000" style="" class=""/><path id="XMLID_4_" d="m465 193c0-15.464-12.536-28-28-28h-62v-60h-150v60h-62c-15.464 0-28 12.536-28 28v17h330zm-120-28h-90v-30h90z" fill="#b5985a" data-original="#000000" style="" class=""/><path id="XMLID_3_" d="m135 240h330v60h-330z" fill="#b5985a" data-original="#000000" style="" class=""/></g></g></svg>
