<svg width="286" height="256" viewBox="0 0 286 256" fill="none" xmlns="http://www.w3.org/2000/svg">
<path d="M7.19999 1.66652C-1.3239e-05 4.59985 -2.00001 13.7998 3.19999 19.9332C6.26665 23.3998 6.93332 23.6665 22.1333 24.3332L37.8667 24.9998L40.9333 40.3332C42.5333 48.7332 46.2667 68.8665 49.3333 84.9998C52.2667 101.133 56.2667 121.8 58 131C68.6667 187.267 68.2667 185.533 71.6 188.6L74.9333 191.667H161.6H248.267L251.467 187.933C255.6 183.133 255.6 177.533 251.467 172.733L248.267 169L168.8 168.6L89.3333 168.2L88.6667 165.267C86.1333 154.2 85.3333 149.933 85.3333 147.267V144.333H163.067C205.733 144.333 242.933 143.933 245.733 143.4C254.267 142.067 257.467 137.533 262.533 118.867C265.067 109.8 271.2 87.7998 276.133 70.0665C281.2 52.1998 285.333 35.3998 285.333 32.7332C285.333 25.3998 281.2 19.3998 275.067 17.7998C271.733 16.8665 234.533 16.3332 165.067 16.3332H60L59.2 12.5998C57.8667 6.19985 55.7333 3.13318 51.6 1.66652C46.8 0.0665153 11.2 0.0665153 7.19999 1.66652ZM259.2 43.9332C258.667 46.0665 253.733 63.7998 248.133 83.6665L237.867 119.667L158.933 120.067C115.6 120.2 80 120.2 80 120.067C80 119.8 76.6667 102.867 72.6667 82.3332C68.6667 61.7998 65.3333 43.9332 65.3333 42.5998C65.3333 40.4665 70.8 40.3332 162.667 40.3332H260L259.2 43.9332Z" fill="white"/>
<path d="M81.0667 209.667C71.3333 212.6 64 222.333 64 232.333C64 251.533 86.9333 262.6 102 250.733C110 244.467 112.8 231.133 108.133 221.933C104.933 215.667 101.467 212.6 95.0667 210.2C89.3333 208.2 86.2667 208.067 81.0667 209.667Z" fill="white"/>
<path d="M225.067 209.667C206.133 215.4 202.133 241 218.4 251.533C228.8 258.333 239.867 257 248.267 248.2C259.867 235.933 254.133 214.333 238 209.8C232 208.2 230.133 208.067 225.067 209.667Z" fill="white"/>
</svg>
