<svg width="223" height="256" viewBox="0 0 223 256" fill="none" xmlns="http://www.w3.org/2000/svg">
<path d="M81.2663 1.86678C74.1996 4.40012 70.5996 8.13345 62.5996 20.9335L55.6663 32.0001H31.6663C4.59963 32.0001 1.26629 32.8001 0.599625 39.4668C0.0662921 44.5335 2.33296 46.4001 9.79963 47.7335L15.6663 48.8001L16.333 137.333C17.133 235.467 16.733 231.6 26.0663 242.133C38.0663 255.733 41.933 256.267 116.333 255.733C176.866 255.333 177 255.333 183.933 252.133C187.8 250.4 193.4 246.4 196.466 243.067C206.866 231.733 206.2 237.867 207 138L207.666 48.8001L213.533 47.7335C221 46.4001 223.266 44.5335 222.733 39.4668C222.066 32.8001 218.733 32.0001 191.666 32.0001L167.666 31.8668L159 18.9335C146.6 0.53345 147.133 0.800117 113.666 0.400117C92.8663 0.13345 85.133 0.400117 81.2663 1.86678ZM144.066 23.2001C146.333 26.6668 148.333 30.1335 148.333 30.8001C148.333 31.4668 132.066 32.0001 111.666 32.0001C91.533 32.0001 74.9996 31.6001 74.9996 31.2001C74.9996 30.0001 80.333 21.2001 82.733 18.2668C84.5996 16.1335 87.3996 16.0001 112.2 16.2668L139.666 16.6668L144.066 23.2001ZM192.066 135.733L191.666 223.467L187.933 229.067C185.933 232.133 181.933 235.867 179 237.333C173.933 239.867 171.4 240 112.066 240C54.733 240 49.933 239.733 44.8663 237.467C38.9996 234.8 34.9996 230 32.5996 222.8C31.3996 219.6 30.9996 193.867 30.9996 133.2V48.0001H111.666H192.466L192.066 135.733Z" fill="#D3D3D3"/>
<path d="M59.2663 82.1335L56.333 84.1335V144V204L59.7997 206.267C62.9997 208.267 63.6663 208.267 66.8663 206.534L70.333 204.534L70.733 144.667C70.9997 84.8002 70.9997 84.6669 68.1997 82.2669C64.733 79.4669 63.133 79.4669 59.2663 82.1335Z" fill="#D3D3D3"/>
<path d="M107.266 82.1335L104.333 84.1335V144V204L107.8 206.267C111 208.267 111.666 208.267 114.866 206.534L118.333 204.534L118.733 144.667C119 84.8002 119 84.6669 116.2 82.2669C112.733 79.4669 111.133 79.4669 107.266 82.1335Z" fill="#D3D3D3"/>
<path d="M155.266 82.1336L152.333 84.1336V143.467C152.333 200.934 152.466 202.8 155 205.334C158.2 208.534 160.066 208.667 164.066 205.867L167 203.867V144V84.1336L164.066 82.1336C162.466 80.9336 160.466 80.0002 159.666 80.0002C158.866 80.0002 156.866 80.9336 155.266 82.1336Z" fill="#D3D3D3"/>
</svg>
