<?xml version="1.0"?>
<svg xmlns="http://www.w3.org/2000/svg" xmlns:xlink="http://www.w3.org/1999/xlink" xmlns:svgjs="http://svgjs.com/svgjs" version="1.1" width="512" height="512" x="0" y="0" viewBox="0 0 512 512" style="enable-background:new 0 0 512 512" xml:space="preserve" class=""><g><path xmlns="http://www.w3.org/2000/svg" d="M473.185,201.955a6.869,6.869,0,0,0-9.884,7.959,215.578,215.578,0,0,1,6.52,30.115,6.9,6.9,0,0,0,6.791,5.9,7.192,7.192,0,0,0,.976-.069,6.876,6.876,0,0,0,5.83-7.768,229.26,229.26,0,0,0-6.937-32.043A6.823,6.823,0,0,0,473.185,201.955Z" fill="#b5985a" data-original="#000000" style="" class=""/><path xmlns="http://www.w3.org/2000/svg" d="M433.873,136.335a6.366,6.366,0,0,0-1.487,8.88,217.164,217.164,0,0,1,16.092,26.355,6.367,6.367,0,0,0,11.315-5.843,229.725,229.725,0,0,0-17.039-27.9A6.362,6.362,0,0,0,433.873,136.335Z" fill="#b5985a" data-original="#000000" style="" class=""/><path xmlns="http://www.w3.org/2000/svg" d="M354.4,203.744a18.4,18.4,0,0,0-7.146,10.417l-3.24,12.657a18.386,18.386,0,0,0,6.491,19.044,30.522,30.522,0,0,1,10.939,30.588l-6.547,29.2a30.331,30.331,0,0,1-8.267,14.941l-5.708,5.653a18.292,18.292,0,0,0-5.339,15.056l3.483,31.915a131.743,131.743,0,0,0,25.8-176.929Z" fill="#b5985a" data-original="#000000" style="" class=""/><path xmlns="http://www.w3.org/2000/svg" d="M338.19,312.068a18.352,18.352,0,0,0,5-9.04l6.547-29.2a18.469,18.469,0,0,0-6.619-18.508,30.385,30.385,0,0,1-10.727-31.474l3.24-12.657a30.423,30.423,0,0,1,11.81-17.217l10.2-7.264A131.793,131.793,0,0,0,263.1,139l5.807,35.309a20.848,20.848,0,0,1-9.143,20.808l-23.172,15.174a8.8,8.8,0,0,0-3.836,9.044l3.115,16.313a8.867,8.867,0,0,0,4.843,6.3l16.281,7.839a20.891,20.891,0,0,1,11.464,22.46l-5.932,32.945a20.929,20.929,0,0,1-3.82,8.786,20.641,20.641,0,0,1-16.622,8.357,21.45,21.45,0,0,1-2.214-.115,20.661,20.661,0,0,1-16.737-11.941l-5.967-12.843a8.86,8.86,0,0,0-8.009-5.11H185.028a8.787,8.787,0,0,0-5.074,1.6L163.73,305.32a20.846,20.846,0,0,1-16.78,3.218l-18.638-4.425c14.81,56.671,66.441,98.615,127.688,98.615a131.176,131.176,0,0,0,71.888-21.355l-4.23-38.767a30.226,30.226,0,0,1,8.823-24.885Z" fill="#b5985a" data-original="#000000" style="" class=""/><path xmlns="http://www.w3.org/2000/svg" d="M156.835,295.5l16.225-11.388a20.729,20.729,0,0,1,11.968-3.781h24.129a20.9,20.9,0,0,1,18.891,12.053l5.968,12.843a8.83,8.83,0,0,0,15.08,1.568,8.871,8.871,0,0,0,1.62-3.725l5.932-32.945a8.856,8.856,0,0,0-4.86-9.521l-16.281-7.839A20.914,20.914,0,0,1,224.083,237.9l-3.115-16.312a20.765,20.765,0,0,1,9.048-21.335l23.173-15.174a8.84,8.84,0,0,0,3.876-8.822l-6.141-37.341c-70.419,2.678-126.884,60.79-126.884,131.852a132.353,132.353,0,0,0,1.574,20.371l24.108,5.723A8.819,8.819,0,0,0,156.835,295.5Z" fill="#b5985a" data-original="#000000" style="" class=""/><path xmlns="http://www.w3.org/2000/svg" d="M411.086,163.511a10.21,10.21,0,0,0,8.089-3.984,6,6,0,0,0,.965-1.833l9.969-31.043,27.578-17.566a5.976,5.976,0,0,0,1.526-1.393A10.242,10.242,0,0,0,450.754,91.2L418.7,86.914,402.66,74.529l22.03-28.522a9.694,9.694,0,0,0-1.745-13.6l-6.9-5.33a13.427,13.427,0,0,0-16.975.492l-26.911,23.4L329.612,18.105a24.474,24.474,0,0,0-29.921,38.738l42.546,32.863L326.4,121.658a13.425,13.425,0,0,0,3.811,16.545l6.9,5.333a9.622,9.622,0,0,0,5.906,2.023,9.84,9.84,0,0,0,1.255-.081,9.632,9.632,0,0,0,6.437-3.689l22.031-28.523,16.041,12.39,12.3,29.863a10.261,10.261,0,0,0,10.006,7.992ZM339.206,55.3a7.108,7.108,0,1,1-1.282-9.971h0A7.117,7.117,0,0,1,339.206,55.3ZM356.75,68.855a7.109,7.109,0,1,1-1.282-9.974h0a7.11,7.11,0,0,1,1.281,9.973Zm17.544,13.552a7.109,7.109,0,1,1-1.282-9.974h0a7.109,7.109,0,0,1,1.281,9.974Zm17.545,13.55a7.108,7.108,0,1,1-1.281-9.972l0,0A7.117,7.117,0,0,1,391.839,95.957Z" fill="#b5985a" data-original="#000000" style="" class=""/><path xmlns="http://www.w3.org/2000/svg" d="M308.548,481.527a5.857,5.857,0,0,0-1.375.164,216.778,216.778,0,0,1-30.536,5.1,5.867,5.867,0,0,0,1.1,11.683,229.168,229.168,0,0,0,32.191-5.376,5.867,5.867,0,0,0-1.383-11.57Z" fill="#b5985a" data-original="#000000" style="" class=""/><path xmlns="http://www.w3.org/2000/svg" d="M434.808,403.935a5.824,5.824,0,0,0-3.619-1.259,5.945,5.945,0,0,0-.7.042,5.824,5.824,0,0,0-3.917,2.2,219.217,219.217,0,0,1-20.842,22.911,5.867,5.867,0,0,0,8.1,8.492,230.571,230.571,0,0,0,21.962-24.144A5.874,5.874,0,0,0,434.808,403.935Z" fill="#b5985a" data-original="#000000" style="" class=""/><path xmlns="http://www.w3.org/2000/svg" d="M478.858,264.9a5.875,5.875,0,0,0-5.868,5.867,219.859,219.859,0,0,1-2.18,30.892,5.866,5.866,0,0,0,4.981,6.636,5.9,5.9,0,0,0,6.636-4.98,231.607,231.607,0,0,0,2.3-32.548A5.874,5.874,0,0,0,478.858,264.9Z" fill="#b5985a" data-original="#000000" style="" class=""/><path xmlns="http://www.w3.org/2000/svg" d="M235.37,486.791a217.177,217.177,0,0,1-30.537-5.1,5.867,5.867,0,1,0-2.757,11.406,228.987,228.987,0,0,0,32.192,5.375,5.867,5.867,0,1,0,1.1-11.683Z" fill="#b5985a" data-original="#000000" style="" class=""/><path xmlns="http://www.w3.org/2000/svg" d="M468.579,338.125a5.869,5.869,0,0,0-7.464,3.626,216.126,216.126,0,0,1-12.206,28.47,5.875,5.875,0,0,0,2.52,7.906,5.863,5.863,0,0,0,7.906-2.52,228.274,228.274,0,0,0,12.87-30.018,5.867,5.867,0,0,0-3.626-7.464Z" fill="#b5985a" data-original="#000000" style="" class=""/><path xmlns="http://www.w3.org/2000/svg" d="M376.469,452.419a5.842,5.842,0,0,0-3.167.932A216.956,216.956,0,0,1,346.155,468.2a5.869,5.869,0,0,0,2.444,11.206,5.81,5.81,0,0,0,2.436-.535,228.525,228.525,0,0,0,28.62-15.655,5.866,5.866,0,0,0-3.186-10.8Z" fill="#b5985a" data-original="#000000" style="" class=""/><path xmlns="http://www.w3.org/2000/svg" d="M50.882,341.746a5.863,5.863,0,0,0-7.464-3.625,5.867,5.867,0,0,0-3.626,7.462,228.1,228.1,0,0,0,12.862,30A5.867,5.867,0,1,0,63.08,370.2,216.413,216.413,0,0,1,50.882,341.746Z" fill="#b5985a" data-original="#000000" style="" class=""/><path xmlns="http://www.w3.org/2000/svg" d="M165.847,468.205a217.523,217.523,0,0,1-27.174-14.87,5.83,5.83,0,0,0-3.164-.935,5.942,5.942,0,0,0-1.254.135A5.869,5.869,0,0,0,132.32,463.2a229.106,229.106,0,0,0,28.646,15.67,5.8,5.8,0,0,0,2.436.535,5.868,5.868,0,0,0,2.445-11.2Z" fill="#b5985a" data-original="#000000" style="" class=""/><path xmlns="http://www.w3.org/2000/svg" d="M85.416,404.9a5.83,5.83,0,0,0-3.917-2.2,5.973,5.973,0,0,0-.7-.041,5.868,5.868,0,0,0-4.6,9.5A230.784,230.784,0,0,0,98.152,436.3a5.868,5.868,0,0,0,8.1-8.492A218.967,218.967,0,0,1,85.416,404.9Z" fill="#b5985a" data-original="#000000" style="" class=""/><path xmlns="http://www.w3.org/2000/svg" d="M36.026,234.342a5.861,5.861,0,0,0,6.867-4.658,216.219,216.219,0,0,1,7.994-29.907,5.868,5.868,0,0,0-11.09-3.838,228.3,228.3,0,0,0-8.43,31.536,5.87,5.87,0,0,0,4.659,6.867Z" fill="#b5985a" data-original="#000000" style="" class=""/><path xmlns="http://www.w3.org/2000/svg" d="M41.19,301.653a219.631,219.631,0,0,1-2.18-30.894,5.868,5.868,0,1,0-11.735.01,231.462,231.462,0,0,0,2.3,32.54,5.867,5.867,0,1,0,11.617-1.656Z" fill="#b5985a" data-original="#000000" style="" class=""/><path xmlns="http://www.w3.org/2000/svg" d="M84.452,128.382a5.874,5.874,0,0,0-8.24.98,230.145,230.145,0,0,0-18.323,27.019,5.87,5.87,0,0,0,5.073,8.808,5.894,5.894,0,0,0,5.085-2.93,217.875,217.875,0,0,1,17.384-25.636A5.877,5.877,0,0,0,84.452,128.382Z" fill="#b5985a" data-original="#000000" style="" class=""/><path xmlns="http://www.w3.org/2000/svg" d="M206.514,49.134a5.838,5.838,0,0,0-3.047-.862,5.942,5.942,0,0,0-1.39.167,227.526,227.526,0,0,0-31.1,9.93,5.867,5.867,0,1,0,4.364,10.892,216.147,216.147,0,0,1,29.489-9.417,5.867,5.867,0,0,0,1.681-10.71Z" fill="#b5985a" data-original="#000000" style="" class=""/><path xmlns="http://www.w3.org/2000/svg" d="M140.446,80.08a5.871,5.871,0,0,0-8.11-1.756,230.474,230.474,0,0,0-26.107,19.57,5.867,5.867,0,1,0,7.688,8.865A218.445,218.445,0,0,1,138.69,88.191,5.877,5.877,0,0,0,140.446,80.08Z" fill="#b5985a" data-original="#000000" style="" class=""/><path xmlns="http://www.w3.org/2000/svg" d="M245.125,42.3a5.881,5.881,0,0,0-3.647,10.243,5.731,5.731,0,0,0,4.191,1.48q5.143-.242,10.316-.242c6.9,0,13.816.323,20.654.968a5.867,5.867,0,1,0,1.1-11.682A232.02,232.02,0,0,0,245.125,42.3Z" fill="#b5985a" data-original="#000000" style="" class=""/></g></svg>
