<?xml version="1.0" encoding="utf-8"?>
<!-- Generator: Adobe Illustrator 26.4.1, SVG Export Plug-In . SVG Version: 6.00 Build 0)  -->
<svg version="1.1" id="Capa_1" xmlns="http://www.w3.org/2000/svg" xmlns:xlink="http://www.w3.org/1999/xlink" x="0px" y="0px"
	 viewBox="0 0 264 264" style="enable-background:new 0 0 264 264;" xml:space="preserve">
<style type="text/css">
	.st0{fill:#B39759;}
</style>
<g>
	<path class="st0" d="M229,146.1c-1.4-1.4-3.1-2.1-5.1-2.1H144v120h72.4c8.3,0,14.6-7.1,14.6-15.4v-97.3
		C231,149.3,230.5,147.5,229,146.1z"/>
	<path class="st0" d="M120,144H40.7c-4.1,0-7.7,3.1-7.7,7.3v97.3c0,8.3,7,15.4,15.2,15.4H120V144z"/>
</g>
<g>
	<path class="st0" d="M120,66H48.4C40.1,66,33,72.7,33,81v35c0,8.3,7.1,15,15.4,15H120V66L120,66z"/>
	<path class="st0" d="M216.3,66H144v65h72.3c8.3,0,14.7-6.7,14.7-15V81C231,72.8,224.6,66,216.3,66z"/>
</g>
<path class="st0" d="M172.3,6.2C166.9,2.1,161.6,0,156.5,0c-10.3,0-18.4,7.6-24.1,22.7C126.7,7.6,118.6,0,108.3,0
	c-5.2,0-10.5,2.1-15.8,6.2c-10.1,7.8-11.2,16-10.3,21.5c3.3,20.5,40.3,34.5,47.7,37.1c0.8,0.3,1.7,0.4,2.5,0.4l0,0l0,0
	c0.8,0,1.7-0.1,2.5-0.4c7.4-2.6,44.4-16.7,47.7-37.1C183.5,22.2,182.4,14,172.3,6.2z M115.5,41.8C99.4,33,97.2,26.9,97,25.3
	c-0.3-2.1,1.2-4.5,4.7-7.2c2.6-2,4.9-3.1,6.6-3.1c3.2,0,8.1,5.1,12.2,19.5c1.1,3.9,2,7.7,2.6,11.2C120.7,44.6,118.1,43.3,115.5,41.8
	z M167.8,25.3c-1,6.5-13.8,14.7-26.1,20.5c2.9-15.4,8.6-30.8,14.9-30.8c1.7,0,4,1.1,6.6,3.1C166.5,20.7,168.1,23.2,167.8,25.3z"/>
</svg>
