<svg width="288" height="256" viewBox="0 0 288 256" fill="none" xmlns="http://www.w3.org/2000/svg">
<path d="M138.267 1.46671C135.467 2.53338 109.467 24.8 56.6671 71.3334C46.8004 80.1334 30.8004 94.1334 21.2004 102.4C11.6004 110.667 3.06706 118.933 2.13373 120.8C-0.399606 126.4 0.400394 132.8 4.13373 137.2C8.13373 142 14.4004 144 25.0671 144H32.6671V192.133C32.6671 245.2 32.8004 245.867 41.0671 252.133C45.2004 255.2 45.8671 255.333 72.0004 255.333C95.6004 255.333 99.0671 255.067 102.267 252.933C110.267 247.467 110.667 245.867 111.334 214.667C112.267 175.2 111.6 176 144.134 176C176.667 176 176.667 176.133 176.667 215.467C176.667 245.733 177.467 248.267 188 253.333C193.6 256 195.6 256.133 218.267 255.733C241.334 255.333 242.934 255.2 247.067 252.267C249.334 250.533 252.134 247.867 253.067 246.267C254.267 244.133 254.8 229.867 255.334 194L256 144.667L266.134 143.867C277.334 142.933 280.534 141.6 284.534 136.533C287.734 132.533 288.4 123.067 285.734 119.733C284.8 118.533 268.4 103.867 249.2 87.2C230.134 70.4 200.934 44.6667 184.267 30C167.6 15.3334 152.267 2.66671 150.267 1.73338C146 -0.13329 142.4 -0.266623 138.267 1.46671Z" fill="#B19962"/>
</svg>
