<svg width="191" height="95" viewBox="0 0 191 95" fill="none" xmlns="http://www.w3.org/2000/svg">
<path d="M114.933 2.46666C111.2 5 111.067 10.0667 114.667 13.6667C117.067 16.0667 119.067 16.3333 140 16.3333C152.533 16.3333 162.667 16.7333 162.667 17.4C162.667 18.8667 112.8 68.3333 111.333 68.3333C110.667 68.3333 100.133 58.4667 88 46.3333C75.0667 33.5333 64.8 24.3333 63.3333 24.3333C60 24.3333 0 84.0667 0 87.4C0 92.2 2.53333 95 7.06667 95C10.8 95 14.2667 92.0667 36.6667 69.6667C50.5333 55.6667 62.5333 44.3333 63.2 44.3333C63.7333 44.3333 66.8 46.8667 70 49.9333C100.4 80.6 108 87.4 111.333 87.2667C114.267 87.2667 120.933 81.4 145.067 57.5333L175.333 27.6667L175.733 51.5333C175.867 66.4667 176.667 76.2 177.467 77.2667C179.333 79.4 186.933 79.5333 189.067 77.4C190.267 76.2 190.667 66.0667 190.667 40.2C190.667 4.86666 190.667 4.46666 187.733 2.46666C185.2 0.599995 179.467 0.333328 151.333 0.333328C123.2 0.333328 117.467 0.599995 114.933 2.46666Z" fill="#A13840"/>
</svg>
