<svg xmlns="http://www.w3.org/2000/svg" xmlns:xlink="http://www.w3.org/1999/xlink" width="22" height="22" viewBox="0 0 22 22">
  <defs>
    <clipPath id="clip-path">
      <rect id="Rectangle_104" data-name="Rectangle 104" width="22" height="22" transform="translate(78 124)" fill="#b5985a"/>
    </clipPath>
  </defs>
  <g id="Mask_Group_1" data-name="Mask Group 1" transform="translate(-78 -124)" clip-path="url(#clip-path)">
    <g id="offers" transform="translate(78 124)">
      <path id="Path_143" data-name="Path 143" d="M21.814.186a.635.635,0,0,0-.5-.184L12.972.631a.634.634,0,0,0-.4.184L.186,13.2a.634.634,0,0,0,0,.9L7.9,21.814a.635.635,0,0,0,.9,0L21.185,9.429a.633.633,0,0,0,.184-.4L22,.682A.635.635,0,0,0,21.814.186Zm-3.64,6.047a1.7,1.7,0,1,1,0-2.407A1.7,1.7,0,0,1,18.174,6.233Z" fill="#b5985a"/>
    </g>
  </g>
</svg>
