<?xml version="1.0" encoding="utf-8"?>
<!-- Generator: Adobe Illustrator 24.0.1, SVG Export Plug-In . SVG Version: 6.00 Build 0)  -->
<svg version="1.1" id="Layer_1" xmlns="http://www.w3.org/2000/svg" xmlns:xlink="http://www.w3.org/1999/xlink" x="0px" y="0px"
	 viewBox="0 0 208.6 174.2" style="enable-background:new 0 0 208.6 174.2;" xml:space="preserve">
<style type="text/css">
	.st0{fill:#FFFFFF;}
	.st1{fill:#B5985A;}
	.st2{fill:#A7A9AC;}
</style>
<g>
	<g>
		<g>
			<g>
				<path class="st0" d="M-20.2,34.9"/>
			</g>
		</g>
		<g>
			<path class="st1" d="M102.1,56.7c4.2-3.9,12-7.1,26.4-7.7c28.4-1.3,32.8-2.8,43.2-8.2c9.2-4.8,19-14.2,22.3-23.8
				c-5.2,3.2-11.5,5.6-17.9,7.3c-15.1,4-31.9,4.7-41.5,4.7c-2.1,0-3.9,0-5.2-0.1c-11.6-0.4-16.8-1.2-29-1.2c-1.9,0-4,0-6.3,0.1
				C82.9,28,75.2,35,72.1,38.5c-0.3,0.3-0.5,0.6-0.7,0.8c4,4.6,8.4,8.6,11.4,11.4c2.2,2.2,8.1,6.7,15.2,12.6
				C98.4,61.6,99.6,59,102.1,56.7z"/>
			<path class="st1" d="M94,25.2c2.3,0,4.4-0.1,6.3-0.1c12.4,0,17.6,0.8,29.1,1.2c1.3,0,3.1,0.1,5.2,0.1c9.5,0,26.1-0.7,40.9-4.6
				c15-3.5,25.8-11.3,29.5-21.8c-12.2,12.2-43.9,12.8-62.1,11.5C124,10.1,90.5,4,84.6,3.5C81.1,3.3,76.8,3.2,72.8,5
				c-4,1.9-7.6,5.8-9.4,11.3c-0.5,1.6-0.7,3.2-0.7,4.8c-0.1,5.6,3,11.2,7,16.2C72.7,33.8,81.1,25.5,94,25.2z"/>
			<path class="st2" d="M97,142.4c0-4.3-1.1-8.4-2.6-11.3c-7-13.6-21.6-27.3-34.4-41.5C47.1,75.1,21.8,53.1,21.6,31.4
				c0-2.8,0.8-5.4,2-8C19,28.6,3,49.6,12.5,79.1c3.4,10.6,14.8,24.6,26.9,42.1C51,138.1,53.6,159.9,53,171.7
				C89,170,96.9,155.1,97,142.4z"/>
			<path class="st1" d="M172.9,43c-10.5,5.5-15.9,7.2-44.2,8.5c-23.2,1.1-27.2,11.2-28.1,14.1c2.9,2.5,6,5.2,9.1,8.1
				C115,78.8,120.5,84,125,89.4c0-13.9,10.6-15.7,13.2-17.2c3.3-2,10.1-3.1,24.8-11.5c15.7-9,19.2-21.4,19.8-25
				C179.8,38.6,176.4,41.1,172.9,43z"/>
			<path class="st2" d="M107.1,76.4C95.7,65.7,84.3,56.7,80.5,53.1c-6.2-6.1-20.9-17.8-21-31.9c0-1.9,0.3-3.8,0.9-5.7
				C62.4,9,68.3,5.2,73,3.1c-9.5-1.2-38.1,1-46.2,18c-1.5,3.1-2.2,6.3-2.2,9.5c-0.2,19.2,24,41.7,37.2,56.3
				c12.7,14.1,28,27.5,35.5,41.8c1.8,3.4,3.3,8.2,3.2,13.2c-0.4,12-4.6,16.4-6.7,17.8c45.8-24.6,37.2-48.4,37.2-48.4
				C129,100.3,118.5,87.1,107.1,76.4z"/>
		</g>
	</g>
</g>
<image style="overflow:visible;" width="1920" height="1080" xlink:href="3055B693.jpg"  transform="matrix(1 0 0 1 266.4522 -95.4904)">
</image>
</svg>
