<?xml version="1.0" standalone="no"?>
<!DOCTYPE svg PUBLIC "-//W3C//DTD SVG 20010904//EN"
 "http://www.w3.org/TR/2001/REC-SVG-20010904/DTD/svg10.dtd">
<svg version="1.0" xmlns="http://www.w3.org/2000/svg"
 width="295.000000pt" height="260.000000pt" viewBox="0 0 295.000000 260.000000"
 preserveAspectRatio="xMidYMid meet">

<g transform="translate(0.000000,260.000000) scale(0.100000,-0.100000)"
fill="#000000" stroke="none">
<path d="M1601 2145 c-147 -32 -249 -80 -362 -171 -175 -140 -256 -360 -218
-594 22 -139 113 -273 201 -295 34 -9 53 12 68 75 12 50 12 52 -30 134 -51
100 -60 172 -37 283 23 106 62 178 137 254 117 116 225 154 415 147 99 -4 117
-8 182 -37 85 -40 162 -114 194 -188 58 -135 33 -414 -52 -573 -59 -111 -110
-155 -212 -181 -90 -22 -197 41 -213 125 -9 48 13 168 46 251 63 159 58 300
-12 349 -28 20 -107 21 -151 3 -42 -18 -101 -84 -118 -133 -19 -53 -16 -198 4
-252 16 -42 16 -44 -38 -255 -79 -306 -109 -494 -101 -627 7 -116 14 -160 27
-160 15 0 142 201 171 273 16 39 45 137 65 217 19 80 37 147 39 149 2 2 19
-12 38 -31 51 -53 116 -80 202 -86 329 -21 575 259 591 673 9 209 -37 338
-166 465 -135 134 -305 201 -506 199 -55 0 -129 -7 -164 -14z"/>
</g>
</svg>
