<?xml version="1.0" encoding="utf-8"?>
<!-- Generator: Adobe Illustrator 23.1.0, SVG Export Plug-In . SVG Version: 6.00 Build 0)  -->
<svg version="1.1" id="Capa_1" xmlns="http://www.w3.org/2000/svg" xmlns:xlink="http://www.w3.org/1999/xlink" x="0px" y="0px"
	 viewBox="0 0 512 512" style="enable-background:new 0 0 512 512;" xml:space="preserve">
<style type="text/css">
	.st0{fill:#B5985A;}
</style>
<path class="st0" d="M452.7,157.9L319,145.5L265.8,22.2c-3.7-8.6-16-8.6-19.7,0L193,145.5L59.3,157.9c-9.4,0.9-13.1,12.5-6.1,18.7
	l100.9,88.6l-29.5,131c-2.1,9.2,7.8,16.4,15.9,11.6L256,339.3l115.5,68.6c8.1,4.8,18-2.4,15.9-11.6l-29.5-131l100.9-88.6
	C465.9,170.5,462.1,158.8,452.7,157.9z"/>
<g>
	<path class="st0" d="M119.3,17.9c6.8,9.5,26.1,50.1,37.1,73.8c1.7,3.7-2.9,7.1-5.9,4.3c-19-18-51.5-49.1-58.3-58.6
		c-5.4-7.5-3.7-17.9,3.8-23.3C103.4,8.7,113.9,10.4,119.3,17.9z"/>
	<path class="st0" d="M392.7,17.9c-6.8,9.5-26.1,50.1-37.1,73.8c-1.7,3.7,2.9,7.1,5.9,4.3c19-18,51.5-49.1,58.3-58.6
		c5.4-7.5,3.7-17.9-3.8-23.3C408.6,8.7,398.1,10.4,392.7,17.9z"/>
	<path class="st0" d="M500.5,295.6c-11.1-3.6-55.7-9.6-81.6-12.9c-4.1-0.5-5.9,5-2.3,6.9c22.9,12.6,62.4,34.1,73.5,37.7
		c8.8,2.9,18.2-1.9,21.1-10.7C514,307.9,509.2,298.5,500.5,295.6z"/>
	<path class="st0" d="M11.5,295.6c11.1-3.6,55.7-9.6,81.6-12.9c4.1-0.5,5.9,5,2.3,6.9c-22.9,12.6-62.4,34.1-73.5,37.7
		c-8.8,2.9-18.2-1.9-21.1-10.7S2.8,298.5,11.5,295.6z"/>
	<path class="st0" d="M239.8,484.3c0-11.7,8.1-55.9,13.1-81.6c0.8-4,6.5-4,7.3,0c4.9,25.7,13.1,69.9,13.1,81.6
		c0,9.2-7.5,16.7-16.7,16.7C247.3,501,239.8,493.5,239.8,484.3z"/>
</g>
<path class="st0" d="M285.2,67l-19.3-44.9c-3.7-8.6-16-8.6-19.7,0L193,145.5L59.3,157.9c-9.4,0.9-13.1,12.5-6.1,18.7l100.9,88.6
	l-29.5,131c-2.1,9.2,7.8,16.4,15.9,11.6l15.4-9.1C181.1,235.7,251.9,115.9,285.2,67z"/>
</svg>
