<?xml version="1.0"?>
<svg xmlns="http://www.w3.org/2000/svg" xmlns:xlink="http://www.w3.org/1999/xlink" xmlns:svgjs="http://svgjs.com/svgjs" version="1.1" width="512" height="512" x="0" y="0" viewBox="0 0 192 192" style="enable-background:new 0 0 512 512" xml:space="preserve" class=""><g><path xmlns="http://www.w3.org/2000/svg" d="m96 0a80 80 0 0 0 -80 80c0 44.183 80 112 80 112s80-67.817 80-112a80 80 0 0 0 -80-80zm0 136a56 56 0 1 1 56-56 56 56 0 0 1 -56 56z" fill="#b5985a" data-original="#000000" style="" class=""/><path xmlns="http://www.w3.org/2000/svg" d="m104 48a8 8 0 0 0 -16 0v18.584l-34.971 13.988 5.942 6.856 29.029-3.612v19.24l-11.578 8.789 7.156 7.31 12.422-6.211 12.422 6.211 7.156-7.31-11.578-8.789v-19.24l29.029 3.612 5.942-6.856-34.971-13.988z" fill="#b5985a" data-original="#000000" style="" class=""/></g></svg>
