<?xml version="1.0" encoding="utf-8"?>
<!-- Generator: Adobe Illustrator 24.0.1, SVG Export Plug-In . SVG Version: 6.00 Build 0)  -->
<svg version="1.1" id="Capa_1" xmlns="http://www.w3.org/2000/svg" xmlns:xlink="http://www.w3.org/1999/xlink" x="0px" y="0px"
	 viewBox="0 0 393.8 393.8" style="enable-background:new 0 0 393.8 393.8;" xml:space="preserve">
<style type="text/css">
	.st0{fill:#B5985A;}
	.st1{fill:#FFFFFF;}
</style>
<polygon class="st0" points="70.9,84.7 365.8,84.7 382.4,94.8 390.1,117.7 390.1,270.4 387.8,290.1 382.4,302.6 361.7,309.8 
	62.4,309.8 19.8,305.3 5.8,289.2 5.8,195.9 8.5,142.2 55.3,93.8 "/>
<g>
	<g>
		<path class="st1" d="M179.8,196.2l-46.8-25l0.8-25.3c0-4.8-1.9-9.3-5.4-12.7c-3.4-3.3-7.8-5.3-12.6-5.4h-1.1
			c-4.7,0.1-9.2,2.1-12.6,5.4c-3.4,3.4-5.2,7.9-5.2,12.7l0.8,25.2l-47.2,25.3c-1.9,1-3.1,3-3.1,5.1v16.2c0,3.2,2.6,5.8,5.9,5.8
			c0.6,0,1.2-0.1,1.8-0.3l43.7-12.6l0.7,24.5l-13.7,7.4c-1.9,1-3.1,3-3.1,5.1v12.6c0,3.2,2.6,5.8,5.9,5.8c0.6,0,1.2-0.1,1.8-0.3
			l24.9-7.3l25.2,7.4c3.1,0.9,6.3-1,7.2-4.1c0.1-0.5,0.2-1,0.2-1.5v-12.6c0-2.3-1.4-4.4-3.6-5.4l-13.2-7.1l0.7-24.5l44,12.6
			c3.1,0.9,6.3-1,7.2-4.1c0.1-0.5,0.2-1,0.2-1.5v-16.2C183.3,199.2,181.9,197.1,179.8,196.2z M126.5,197.3c-3.2-0.1-5.9,2.4-6,5.6
			c0,0,0,0,0,0l-1,35.6c-0.1,2.2,1.1,4.2,3.1,5.3l13.8,7.4v1.4l-19.1-5.7c-1.2-0.4-2.5-0.4-3.7,0l-19.1,5.7v-1.4l13.6-7.3
			c2-1,3.3-3.1,3.2-5.4c0,0-1.1-36.4-1.2-37c-0.9-3.1-4.1-4.9-7.2-4c0,0,0,0,0,0l-43.8,12.6v-5.2l47.1-25.2c2-1,3.3-3.1,3.2-5.4
			l-0.8-28.6c0-1.7,0.7-3.2,1.9-4.4c1.3-1.3,2.9-2,4.7-2h0.4c1.8,0.1,3.5,0.8,4.7,2c1.2,1.2,1.9,2.8,1.9,4.4l-0.8,28.6
			c-0.1,2.2,1.1,4.2,3.1,5.3l47.2,25.3l0.1,5.2C171.8,210.1,127,197.3,126.5,197.3z"/>
	</g>
</g>
<g>
	<g>
		<path class="st1" d="M303.9,252.1c-0.2-2.8-2.5-5.1-5.3-5.3h-76c-3.2,0.3-5.6,3.1-5.3,6.3c0.2,2.8,2.5,5.1,5.3,5.3h76
			C301.8,258.1,304.2,255.3,303.9,252.1z"/>
	</g>
</g>
<g>
	<g>
		<path class="st1" d="M299.7,172.6c-0.3,0-0.6,0-1,0h-76c-3.2-0.3-6,2.1-6.3,5.3s2.1,6,5.3,6.3c0.3,0,0.6,0,1,0h76
			c3.2,0.3,6-2.1,6.3-5.3S302.9,172.8,299.7,172.6z"/>
	</g>
</g>
<g>
	<g>
		<path class="st0" d="M363.3,79.7H68.2c-0.9,0.1-1.7,0.3-2.6,0.6C65,80.7,64.5,81,64,81.5L1.8,143.7L1,144.6l-0.4,0.6
			C0.2,146,0,146.9,0,147.9v135.7c0,16.9,13.7,30.5,30.6,30.6h332.7c16.9,0,30.5-13.7,30.6-30.6V110.3
			C393.8,93.4,380.1,79.8,363.3,79.7z M62.4,99.7v23.6c0,10.4-8.5,18.9-18.9,18.9H19.8L62.4,99.7z M382.4,283.7
			c0,10.4-8.5,18.9-18.9,18.9H30.6c-10.4,0-18.9-8.5-18.9-18.9v-130h32c16.9,0,30.5-13.7,30.6-30.6v-32h289.3
			c10.4,0,18.9,8.5,18.9,18.9L382.4,283.7z"/>
	</g>
</g>
<g>
	<g>
		<path class="st1" d="M345.9,215c-0.2-2.8-2.5-5.1-5.3-5.3H222.7c-3.2-0.3-6,2.1-6.3,5.3s2.1,6,5.3,6.3c0.3,0,0.6,0,1,0h117.9
			C343.8,221,346.2,218.2,345.9,215z"/>
	</g>
</g>
<g>
	<g>
		<path class="st1" d="M345.9,140.8c-0.2-2.8-2.5-5.1-5.3-5.3H222.7c-3.2,0.3-5.6,3.1-5.3,6.3c0.2,2.8,2.5,5.1,5.3,5.3h117.9
			C343.8,146.8,346.2,144,345.9,140.8z"/>
	</g>
</g>
</svg>
