<?xml version="1.0" standalone="no"?>
<!DOCTYPE svg PUBLIC "-//W3C//DTD SVG 20010904//EN"
 "http://www.w3.org/TR/2001/REC-SVG-20010904/DTD/svg10.dtd">
<svg version="1.0" xmlns="http://www.w3.org/2000/svg"
 width="344.000000pt" height="226.000000pt" viewBox="0 0 344.000000 226.000000"
 preserveAspectRatio="xMidYMid meet">

<g transform="translate(0.000000,226.000000) scale(0.100000,-0.100000)"
fill="#000000" stroke="none">
<path d="M2300 1786 c-186 -41 -301 -192 -301 -393 l0 -82 -37 5 c-128 17
-187 30 -262 56 -171 61 -310 147 -433 270 l-78 78 -22 -48 c-18 -38 -22 -65
-22 -142 0 -86 3 -101 32 -162 17 -37 53 -91 80 -119 l48 -52 -44 8 c-24 4
-59 14 -77 21 -18 8 -36 14 -40 14 -14 0 6 -103 32 -160 43 -96 177 -209 249
-210 15 0 16 -3 7 -12 -7 -7 -41 -13 -82 -13 -81 0 -81 -2 -25 -91 53 -83 133
-137 237 -158 32 -6 60 -16 60 -21 3 -16 -84 -70 -165 -103 -83 -35 -219 -62
-309 -62 -76 0 -69 -11 39 -62 102 -48 276 -93 393 -103 165 -13 404 29 552
98 145 67 288 180 393 310 79 97 173 281 209 409 26 90 52 285 43 319 -4 15
17 43 90 115 53 52 94 97 91 100 -3 2 -45 -7 -93 -21 -48 -14 -91 -23 -95 -20
-5 3 14 27 41 52 51 48 106 129 95 140 -3 3 -33 -6 -66 -21 -33 -15 -84 -32
-114 -38 -52 -11 -55 -11 -86 16 -51 42 -122 74 -191 86 -76 12 -79 12 -149
-4z"/>
</g>
</svg>
